<svg
    xmlns="http://www.w3.org/2000/svg"
    viewBox="0 0 174 89"
    id="vector">
    <defs>
        <clipPath id="clip_path">
            <path d="M 0 0 L 95 0 L 95 89 L 0 89 Z M 0 0"/>
        </clipPath>
        <clipPath id="clip_path_1">
            <path d="M 63 8 L 141 8 L 141 81 L 63 81 Z M 0 0"/>
        </clipPath>
        <clipPath id="clip_path_2">
            <path d="M 115 16 L 174 16 L 174 73 L 115 73 Z M 0 0"/>
        </clipPath>
        <clipPath id="clip_path_3">
            <path d="M 115 16 L 174 16 L 174 73 L 115 73 Z M 0 0"/>
        </clipPath>
    </defs>
    <g id="group">
        <path
            id="path"
            clip-path="url(#clip_path)"
            d="M 80.93 30.998 C 79.532 30.181 77.694 30.581 76.824 31.89 C 75.953 33.199 76.379 34.921 77.776 35.736 C 81.026 37.635 82.966 40.911 82.966 44.5 C 82.966 48.089 81.026 51.365 77.776 53.264 L 28.89 81.82 C 25.441 83.835 21.261 83.934 17.708 82.087 C 14.155 80.239 12.033 76.863 12.033 73.056 L 12.033 15.944 C 12.033 12.137 14.155 8.761 17.708 6.913 C 21.261 5.066 25.441 5.165 28.89 7.18 L 57.348 23.803 C 58.745 24.619 60.583 24.22 61.455 22.911 C 62.325 21.603 61.899 19.881 60.502 19.065 L 32.044 2.442 C 26.731 -0.662 20.292 -0.816 14.816 2.031 C 9.341 4.877 6.073 10.078 6.073 15.944 L 6.073 73.056 C 6.073 78.922 9.341 84.123 14.816 86.969 C 17.424 88.324 20.25 89 23.07 89 C 26.17 89 29.262 88.183 32.044 86.558 L 80.93 58.002 C 85.938 55.076 88.928 50.029 88.928 44.5 C 88.928 38.971 85.938 33.923 80.93 30.998 Z"
            fill="#fff3f3"/>
    </g>
    <g id="group_1">
        <path
            id="path_1"
            clip-path="url(#clip_path_1)"
            d="M 129.448 33.425 C 128.3 32.756 126.791 33.083 126.076 34.157 C 125.361 35.23 125.711 36.643 126.858 37.312 C 129.527 38.869 131.12 41.557 131.12 44.5 C 131.12 47.444 129.527 50.131 126.858 51.689 L 86.72 75.111 C 83.889 76.763 80.456 76.845 77.539 75.33 C 74.622 73.814 72.88 71.045 72.88 67.923 L 72.88 21.077 C 72.88 17.955 74.622 15.186 77.539 13.67 C 80.456 12.156 83.889 12.237 86.72 13.889 L 110.086 27.524 C 111.233 28.193 112.742 27.866 113.457 26.792 C 114.172 25.719 113.822 24.306 112.676 23.637 L 89.31 10.003 C 84.948 7.457 79.66 7.331 75.164 9.666 C 70.67 12 67.986 16.266 67.986 21.077 L 67.986 67.922 C 67.986 72.733 70.67 77 75.165 79.334 C 77.306 80.446 79.626 81 81.941 81 C 84.487 81 87.026 80.33 89.31 78.997 L 129.448 55.575 C 133.56 53.175 136.014 49.035 136.014 44.5 C 136.014 39.965 133.56 35.825 129.448 33.425 Z"
            fill="#fff3f3"/>
    </g>
    <g id="group_2">
        <path
            id="path_2"
            clip-path="url(#clip_path_2)"
            d="M 165.262 35.853 C 164.394 35.33 163.252 35.585 162.711 36.424 C 162.171 37.262 162.435 38.365 163.303 38.887 C 165.322 40.104 166.527 42.202 166.527 44.5 C 166.527 46.799 165.322 48.897 163.303 50.113 L 132.942 68.402 C 130.8 69.692 128.204 69.755 125.998 68.573 C 123.791 67.389 122.473 65.227 122.473 62.789 L 122.473 26.211 C 122.473 23.773 123.791 21.611 125.998 20.428 C 128.204 19.245 130.8 19.308 132.942 20.598 L 150.616 31.245 C 151.484 31.767 152.625 31.512 153.167 30.674 C 153.707 29.836 153.443 28.733 152.575 28.21 L 134.901 17.564 C 131.602 15.576 127.602 15.478 124.201 17.301 C 120.801 19.123 118.772 22.455 118.772 26.211 L 118.772 62.789 C 118.772 66.545 120.801 69.876 124.202 71.699 C 125.821 72.567 127.576 73 129.327 73 C 131.253 73 133.173 72.477 134.901 71.436 L 165.262 53.147 C 168.372 51.273 170.229 48.041 170.229 44.5 C 170.229 40.959 168.372 37.726 165.262 35.853 Z"
            fill="#fff3f3"/>
        <path
            id="path_3"
            clip-path="url(#clip_path_3)"
            d="M 155.846 33.569 C 155.846 34.087 156.045 34.583 156.4 34.949 C 156.754 35.315 157.236 35.521 157.737 35.521 C 158.238 35.521 158.72 35.315 159.074 34.949 C 159.429 34.583 159.628 34.087 159.628 33.569 C 159.628 33.051 159.429 32.555 159.074 32.189 C 158.72 31.823 158.238 31.617 157.737 31.617 C 157.236 31.617 156.754 31.823 156.4 32.189 C 156.045 32.555 155.846 33.051 155.846 33.569 Z"
            fill="#fff3f3"/>
    </g>
    <path
        id="path_4"
        d="M 46.978 31.432 C 46.978 32.328 46.762 33.168 46.329 33.952 C 45.914 34.736 45.25 35.368 44.338 35.848 C 43.442 36.328 42.306 36.568 40.93 36.568 L 38.121 36.568 L 38.121 43 L 34.762 43 L 34.762 26.248 L 40.93 26.248 C 42.225 26.248 43.329 26.472 44.242 26.92 C 45.153 27.368 45.833 27.984 46.282 28.768 C 46.745 29.552 46.978 30.44 46.978 31.432 Z M 40.785 33.856 C 41.714 33.856 42.402 33.648 42.849 33.232 C 43.298 32.8 43.521 32.2 43.521 31.432 C 43.521 29.8 42.61 28.984 40.785 28.984 L 38.121 28.984 L 38.121 33.856 L 40.785 33.856 Z M 51.067 28.12 C 50.475 28.12 49.979 27.936 49.579 27.568 C 49.195 27.184 49.003 26.712 49.003 26.152 C 49.003 25.592 49.195 25.128 49.579 24.76 C 49.979 24.376 50.475 24.184 51.067 24.184 C 51.659 24.184 52.147 24.376 52.531 24.76 C 52.931 25.128 53.131 25.592 53.131 26.152 C 53.131 26.712 52.931 27.184 52.531 27.568 C 52.147 27.936 51.659 28.12 51.067 28.12 Z M 52.723 29.704 L 52.723 43 L 49.363 43 L 49.363 29.704 L 52.723 29.704 Z M 59.955 32.464 L 59.955 38.896 C 59.955 39.344 60.059 39.672 60.267 39.88 C 60.491 40.072 60.859 40.168 61.371 40.168 L 62.931 40.168 L 62.931 43 L 60.819 43 C 57.987 43 56.571 41.624 56.571 38.872 L 56.571 32.464 L 54.987 32.464 L 54.987 29.704 L 56.571 29.704 L 56.571 26.416 L 59.955 26.416 L 59.955 29.704 L 62.931 29.704 L 62.931 32.464 L 59.955 32.464 Z M 68.419 40.24 L 74.347 40.24 L 74.347 43 L 64.603 43 L 64.603 40.288 L 70.411 32.464 L 64.627 32.464 L 64.627 29.704 L 74.275 29.704 L 74.275 32.416 L 68.419 40.24 Z M 80.021 40.24 L 85.949 40.24 L 85.949 43 L 76.205 43 L 76.205 40.288 L 82.013 32.464 L 76.229 32.464 L 76.229 29.704 L 85.877 29.704 L 85.877 32.416 L 80.021 40.24 Z"
        fill="#ff416c"/>
    <path
        id="path_5"
        d="M 61.016 56.02 C 61.016 54.66 61.323 53.44 61.936 52.36 C 62.55 51.267 63.383 50.413 64.436 49.8 C 65.503 49.187 66.683 48.88 67.976 48.88 C 69.496 48.88 70.823 49.247 71.956 49.98 C 73.09 50.713 73.916 51.753 74.436 53.1 L 72.256 53.1 C 71.87 52.26 71.31 51.613 70.576 51.16 C 69.856 50.707 68.99 50.48 67.976 50.48 C 67.003 50.48 66.13 50.707 65.356 51.16 C 64.583 51.613 63.976 52.26 63.536 53.1 C 63.096 53.927 62.876 54.9 62.876 56.02 C 62.876 57.127 63.096 58.1 63.536 58.94 C 63.976 59.767 64.583 60.407 65.356 60.86 C 66.13 61.313 67.003 61.54 67.976 61.54 C 68.99 61.54 69.856 61.32 70.576 60.88 C 71.31 60.427 71.87 59.78 72.256 58.94 L 74.436 58.94 C 73.916 60.273 73.09 61.307 71.956 62.04 C 70.823 62.76 69.496 63.12 67.976 63.12 C 66.683 63.12 65.503 62.82 64.436 62.22 C 63.383 61.607 62.55 60.76 61.936 59.68 C 61.323 58.6 61.016 57.38 61.016 56.02 Z M 78.086 50.26 C 77.739 50.26 77.446 50.14 77.205 49.9 C 76.965 49.66 76.845 49.367 76.845 49.02 C 76.845 48.673 76.965 48.38 77.205 48.14 C 77.446 47.9 77.739 47.78 78.086 47.78 C 78.419 47.78 78.699 47.9 78.925 48.14 C 79.165 48.38 79.285 48.673 79.285 49.02 C 79.285 49.367 79.165 49.66 78.925 49.9 C 78.699 50.14 78.419 50.26 78.086 50.26 Z M 78.965 52.04 L 78.965 63 L 77.146 63 L 77.146 52.04 L 78.965 52.04 Z M 87.407 51.84 C 88.741 51.84 89.821 52.247 90.647 53.06 C 91.474 53.86 91.887 55.02 91.887 56.54 L 91.887 63 L 90.087 63 L 90.087 56.8 C 90.087 55.707 89.814 54.873 89.267 54.3 C 88.721 53.713 87.974 53.42 87.027 53.42 C 86.067 53.42 85.301 53.72 84.727 54.32 C 84.167 54.92 83.887 55.793 83.887 56.94 L 83.887 63 L 82.067 63 L 82.067 52.04 L 83.887 52.04 L 83.887 53.6 C 84.247 53.04 84.734 52.607 85.347 52.3 C 85.974 51.993 86.661 51.84 87.407 51.84 Z M 104.86 57.1 C 104.86 57.447 104.84 57.813 104.8 58.2 L 96.04 58.2 C 96.107 59.28 96.474 60.127 97.14 60.74 C 97.82 61.34 98.64 61.64 99.6 61.64 C 100.387 61.64 101.04 61.46 101.56 61.1 C 102.094 60.727 102.467 60.233 102.68 59.62 L 104.64 59.62 C 104.347 60.673 103.76 61.533 102.88 62.2 C 102 62.853 100.907 63.18 99.6 63.18 C 98.56 63.18 97.627 62.947 96.8 62.48 C 95.987 62.013 95.347 61.353 94.88 60.5 C 94.414 59.633 94.18 58.633 94.18 57.5 C 94.18 56.367 94.407 55.373 94.86 54.52 C 95.314 53.667 95.947 53.013 96.76 52.56 C 97.587 52.093 98.534 51.86 99.6 51.86 C 100.64 51.86 101.56 52.087 102.36 52.54 C 103.16 52.993 103.774 53.62 104.2 54.42 C 104.64 55.207 104.86 56.1 104.86 57.1 Z M 102.98 56.72 C 102.98 56.027 102.827 55.433 102.52 54.94 C 102.214 54.433 101.794 54.053 101.26 53.8 C 100.74 53.533 100.16 53.4 99.52 53.4 C 98.6 53.4 97.814 53.693 97.16 54.28 C 96.52 54.867 96.154 55.68 96.06 56.72 L 102.98 56.72 Z M 120.443 51.84 C 121.296 51.84 122.056 52.02 122.723 52.38 C 123.389 52.727 123.916 53.253 124.303 53.96 C 124.689 54.667 124.883 55.527 124.883 56.54 L 124.883 63 L 123.083 63 L 123.083 56.8 C 123.083 55.707 122.809 54.873 122.263 54.3 C 121.729 53.713 121.003 53.42 120.083 53.42 C 119.136 53.42 118.383 53.727 117.823 54.34 C 117.263 54.94 116.983 55.813 116.983 56.96 L 116.983 63 L 115.183 63 L 115.183 56.8 C 115.183 55.707 114.909 54.873 114.363 54.3 C 113.829 53.713 113.103 53.42 112.183 53.42 C 111.236 53.42 110.483 53.727 109.923 54.34 C 109.363 54.94 109.083 55.813 109.083 56.96 L 109.083 63 L 107.263 63 L 107.263 52.04 L 109.083 52.04 L 109.083 53.62 C 109.443 53.047 109.923 52.607 110.523 52.3 C 111.136 51.993 111.809 51.84 112.543 51.84 C 113.463 51.84 114.276 52.047 114.983 52.46 C 115.689 52.873 116.216 53.48 116.563 54.28 C 116.869 53.507 117.376 52.907 118.083 52.48 C 118.789 52.053 119.576 51.84 120.443 51.84 Z M 127.188 57.48 C 127.188 56.36 127.415 55.38 127.868 54.54 C 128.321 53.687 128.941 53.027 129.728 52.56 C 130.528 52.093 131.415 51.86 132.388 51.86 C 133.348 51.86 134.181 52.067 134.888 52.48 C 135.595 52.893 136.121 53.413 136.468 54.04 L 136.468 52.04 L 138.308 52.04 L 138.308 63 L 136.468 63 L 136.468 60.96 C 136.108 61.6 135.568 62.133 134.848 62.56 C 134.141 62.973 133.315 63.18 132.368 63.18 C 131.395 63.18 130.515 62.94 129.728 62.46 C 128.941 61.98 128.321 61.307 127.868 60.44 C 127.415 59.573 127.188 58.587 127.188 57.48 Z M 136.468 57.5 C 136.468 56.673 136.301 55.953 135.968 55.34 C 135.635 54.727 135.181 54.26 134.608 53.94 C 134.048 53.607 133.428 53.44 132.748 53.44 C 132.068 53.44 131.448 53.6 130.888 53.92 C 130.328 54.24 129.881 54.707 129.548 55.32 C 129.215 55.933 129.048 56.653 129.048 57.48 C 129.048 58.32 129.215 59.053 129.548 59.68 C 129.881 60.293 130.328 60.767 130.888 61.1 C 131.448 61.42 132.068 61.58 132.748 61.58 C 133.428 61.58 134.048 61.42 134.608 61.1 C 135.181 60.767 135.635 60.293 135.968 59.68 C 136.301 59.053 136.468 58.327 136.468 57.5 Z"
        fill="#222222"/>
</svg>
